
  <svg
    width="1000"
    height="1000"
    viewBox="0 0 1000 1000"
    xmlns="http://www.w3.org/2000/svg"
  >
    <defs>
      <clipPath id="shape">
        <path fill="currentColor" d="M789,690Q803,880,617,841Q431,802,325.5,718.5Q220,635,135,459Q50,283,238.5,231Q427,179,567,210Q707,241,741,370.5Q775,500,789,690Z"></path>
      </clipPath>
    </defs>
    <g  clip-path="url(#shape)">
      <path fill="#303F9F" d="M789,690Q803,880,617,841Q431,802,325.5,718.5Q220,635,135,459Q50,283,238.5,231Q427,179,567,210Q707,241,741,370.5Q775,500,789,690Z" />
    </g>
  </svg>